<svg width="15" height="14" viewBox="0 0 15 14" fill="none" xmlns="http://www.w3.org/2000/svg">
<path d="M0.999675 0.999999L0.999675 13M10.0797 2.73333L10.0797 1.66667C10.0797 1.3 9.77967 1 9.41301 1L3.66634 1C3.29968 1 2.99968 1.3 2.99968 1.66667L2.99968 2.73333C2.99968 3.1 3.29968 3.4 3.66634 3.4L9.41301 3.4C9.77967 3.4 10.0797 3.1 10.0797 2.73333ZM12.2063 7.53333L12.2063 6.46667C12.2063 6.1 11.9063 5.8 11.5397 5.8L3.66634 5.8C3.29967 5.8 2.99967 6.1 2.99967 6.46667L2.99967 7.53333C2.99967 7.9 3.29967 8.2 3.66634 8.2L11.5397 8.2C11.9063 8.2 12.2063 7.9 12.2063 7.53333ZM14.333 12.3333L14.333 11.2667C14.333 10.9 14.033 10.6 13.6663 10.6L3.66634 10.6C3.29967 10.6 2.99967 10.9 2.99967 11.2667L2.99967 12.3333C2.99967 12.7 3.29967 13 3.66634 13L13.6663 13C14.033 13 14.333 12.7 14.333 12.3333Z" stroke="#0168BF" stroke-linecap="round" stroke-linejoin="round"/>
</svg>
