<svg width="28" height="27" viewBox="0 0 28 27" fill="none" xmlns="http://www.w3.org/2000/svg">
<path fill-rule="evenodd" clip-rule="evenodd" d="M16.6822 24.5486C16.4096 24.4952 16.1306 24.4338 15.8452 24.3644L13.2904 23.7515C6.94924 22.2344 4.98758 19.0777 6.47784 12.6724L7.96809 6.25171C8.16562 5.40575 8.3888 4.6309 8.64598 3.93555C8.49513 3.98005 8.34224 4.02713 8.18731 4.07625L5.97377 4.80476C0.411904 6.59801 -1.07313 9.54005 0.720119 15.1019L2.51337 20.6358C4.32062 26.1976 7.24866 27.6967 12.8105 25.9034L15.0241 25.1749C15.6249 24.9789 16.1772 24.7714 16.6822 24.5486Z" fill="#0168BF"/>
<path d="M27.5628 11.2074L26.1898 17.1086C25.013 22.2051 22.6874 24.2663 18.3164 23.8428C17.6159 23.7863 16.8593 23.6593 16.0468 23.4616L13.6931 22.8969C7.85108 21.4993 6.04382 18.591 7.41677 12.6898L8.78973 6.77446C9.06992 5.57445 9.40616 4.52974 9.82645 3.66856C11.4656 0.252063 14.2535 -0.66559 18.9328 0.449711L21.2724 1.0003C27.1425 2.38384 28.9357 5.30621 27.5628 11.2074Z" fill="#0168BF"/>
<path d="M14.9257 8.44727L21.7204 10.1705M13.5527 13.869L17.6156 14.9058" stroke="white" stroke-width="1.5" stroke-linecap="round" stroke-linejoin="round"/>
</svg>
