<svg width="14" height="14" viewBox="0 0 14 14" fill="none" xmlns="http://www.w3.org/2000/svg">
<path d="M5.34095 0.773438L3.16895 2.95144M9.16894 0.773438L11.3409 2.95144" stroke="#FF0000" stroke-miterlimit="10" stroke-linecap="round" stroke-linejoin="round"/>
<path d="M1.25488 4.28301C1.25488 3.17301 1.84888 3.08301 2.58688 3.08301H11.9229C12.6609 3.08301 13.2549 3.17301 13.2549 4.28301C13.2549 5.57301 12.6609 5.48301 11.9229 5.48301H2.58688C1.84888 5.48301 1.25488 5.57301 1.25488 4.28301Z" stroke="#FF0000"/>
<path d="M5.91127 7.97324V10.1032M8.67127 7.97324V10.1032M2.15527 5.57324L3.00127 10.7572C3.19327 11.9212 3.65527 12.7732 5.37127 12.7732H8.98927C10.8553 12.7732 11.1313 11.9572 11.3473 10.8292L12.3553 5.57324" stroke="#FF0000" stroke-linecap="round"/>
</svg>
