<svg width="12" height="12" viewBox="0 0 12 12" fill="none" xmlns="http://www.w3.org/2000/svg">
<path d="M6.44508 5.80984L5.03508 7.21984C4.25508 7.99984 4.25508 9.26984 5.03508 10.0498C5.81508 10.8298 7.08508 10.8298 7.86508 10.0498L10.0851 7.82984C10.8342 7.07853 11.2549 6.06083 11.2549 4.99984C11.2549 3.93885 10.8342 2.92115 10.0851 2.16984C9.33377 1.42069 8.31606 1 7.25508 1C6.19409 1 5.17639 1.42069 4.42508 2.16984L2.00508 4.58984C1.68645 4.9082 1.43368 5.28623 1.26122 5.70232C1.08877 6.11842 1 6.56442 1 7.01484C1 7.46526 1.08877 7.91126 1.26122 8.32736C1.43368 8.74345 1.68645 9.12148 2.00508 9.43984" stroke="#595959" stroke-linecap="round" stroke-linejoin="round"/>
</svg>
