<svg width="14" height="14" viewBox="0 0 14 14" fill="none" xmlns="http://www.w3.org/2000/svg">
<path d="M5.08606 1L2.91406 3.178M8.91406 1L11.0861 3.178" stroke="#ACACAC" stroke-opacity="0.3" stroke-miterlimit="10" stroke-linecap="round" stroke-linejoin="round"/>
<path d="M1 4.50957C1 3.39957 1.594 3.30957 2.332 3.30957H11.668C12.406 3.30957 13 3.39957 13 4.50957C13 5.79957 12.406 5.70957 11.668 5.70957H2.332C1.594 5.70957 1 5.79957 1 4.50957Z" stroke="#ACACAC" stroke-opacity="0.3"/>
<path d="M5.65639 8.1998V10.3298M8.41639 8.1998V10.3298M1.90039 5.7998L2.74639 10.9838C2.93839 12.1478 3.40039 12.9998 5.11639 12.9998H8.73439C10.6004 12.9998 10.8764 12.1838 11.0924 11.0558L12.1004 5.7998" stroke="#ACACAC" stroke-opacity="0.3" stroke-linecap="round"/>
</svg>
