<svg width="26" height="24" viewBox="0 0 26 24" fill="none" xmlns="http://www.w3.org/2000/svg">
<path d="M1.33366 1.5L1.33366 22.5M17.2237 4.53333L17.2237 2.66667C17.2237 2.025 16.6987 1.5 16.057 1.5L6.00032 1.5C5.35866 1.5 4.83366 2.025 4.83366 2.66667L4.83366 4.53333C4.83366 5.175 5.35866 5.7 6.00032 5.7L16.057 5.7C16.6987 5.7 17.2237 5.175 17.2237 4.53333ZM20.9453 12.9333L20.9453 11.0667C20.9453 10.425 20.4203 9.9 19.7787 9.9L6.00032 9.9C5.35866 9.9 4.83366 10.425 4.83366 11.0667L4.83366 12.9333C4.83366 13.575 5.35866 14.1 6.00032 14.1L19.7787 14.1C20.4203 14.1 20.9453 13.575 20.9453 12.9333ZM24.667 21.3333L24.667 19.4667C24.667 18.825 24.142 18.3 23.5003 18.3L6.00032 18.3C5.35866 18.3 4.83366 18.825 4.83366 19.4667L4.83366 21.3333C4.83366 21.975 5.35866 22.5 6.00032 22.5L23.5003 22.5C24.142 22.5 24.667 21.975 24.667 21.3333Z" stroke="#ACACAC" stroke-width="1.5" stroke-linecap="round" stroke-linejoin="round"/>
</svg>
