<svg width="28" height="28" viewBox="0 0 28 28" fill="none" xmlns="http://www.w3.org/2000/svg">
<path d="M15.1784 3.40703L22.0618 6.4637C24.0451 7.3387 24.0451 8.78536 22.0618 9.66036L15.1784 12.717C14.3968 13.067 13.1134 13.067 12.3318 12.717L5.44844 9.66036C3.4651 8.78536 3.4651 7.3387 5.44844 6.4637L12.3318 3.40703C13.1134 3.05703 14.3968 3.05703 15.1784 3.40703Z" stroke="#ACACAC" stroke-width="1.7" stroke-linecap="round" stroke-linejoin="round"/>
<path d="M3.5 12.833C3.5 13.813 4.235 14.9447 5.13333 15.3413L13.055 18.8647C13.6617 19.133 14.35 19.133 14.945 18.8647L22.8667 15.3413C23.765 14.9447 24.5 13.813 24.5 12.833" stroke="#ACACAC" stroke-width="1.7" stroke-linecap="round" stroke-linejoin="round"/>
<path d="M3.5 18.667C3.5 19.752 4.14167 20.732 5.13333 21.1753L13.055 24.6987C13.6617 24.967 14.35 24.967 14.945 24.6987L22.8667 21.1753C23.8583 20.732 24.5 19.752 24.5 18.667" stroke="#ACACAC" stroke-width="1.7" stroke-linecap="round" stroke-linejoin="round"/>
</svg>
