<svg width="17" height="16" viewBox="0 0 17 16" fill="none" xmlns="http://www.w3.org/2000/svg">
<path d="M16.0006 15.1998L14.5606 13.7598M8.44059 14.4798C9.33883 14.4798 10.2283 14.3029 11.0581 13.9591C11.888 13.6154 12.642 13.1116 13.2772 12.4764C13.9123 11.8413 14.4162 11.0872 14.7599 10.2574C15.1037 9.42749 15.2806 8.53805 15.2806 7.6398C15.2806 6.74156 15.1037 5.85212 14.7599 5.02225C14.4162 4.19238 13.9123 3.43835 13.2772 2.80319C12.642 2.16804 11.888 1.66421 11.0581 1.32047C10.2283 0.976726 9.33883 0.799805 8.44059 0.799805C6.62651 0.799805 4.88672 1.52045 3.60398 2.80319C2.32123 4.08594 1.60059 5.82572 1.60059 7.6398C1.60059 9.45389 2.32123 11.1937 3.60398 12.4764C4.88672 13.7592 6.62651 14.4798 8.44059 14.4798Z" stroke="#ACACAC" stroke-width="1.20833" stroke-linecap="round" stroke-linejoin="round"/>
</svg>
