<svg width="28" height="28" viewBox="0 0 28 28" fill="none" xmlns="http://www.w3.org/2000/svg">
<path d="M14 17.5C14.9283 17.5 15.8185 17.1313 16.4749 16.4749C17.1313 15.8185 17.5 14.9283 17.5 14C17.5 13.0717 17.1313 12.1815 16.4749 11.5251C15.8185 10.8687 14.9283 10.5 14 10.5C13.0717 10.5 12.1815 10.8687 11.5251 11.5251C10.8687 12.1815 10.5 13.0717 10.5 14C10.5 14.9283 10.8687 15.8185 11.5251 16.4749C12.1815 17.1313 13.0717 17.5 14 17.5V17.5Z" stroke="#ACACAC" stroke-width="2" stroke-miterlimit="10" stroke-linecap="round" stroke-linejoin="round"/>
<path d="M2.33301 15.027V12.9737C2.33301 11.7603 3.32467 10.757 4.54967 10.757C6.66134 10.757 7.52467 9.26367 6.46301 7.432C5.85634 6.382 6.21801 5.017 7.27967 4.41033L9.29801 3.25533C10.2197 2.707 11.4097 3.03367 11.958 3.95533L12.0863 4.177C13.1363 6.00867 14.863 6.00867 15.9247 4.177L16.053 3.95533C16.6013 3.03367 17.7913 2.707 18.713 3.25533L20.7313 4.41033C21.793 5.017 22.1547 6.382 21.548 7.432C20.4863 9.26367 21.3497 10.757 23.4613 10.757C24.6747 10.757 25.678 11.7487 25.678 12.9737V15.027C25.678 16.2403 24.6863 17.2437 23.4613 17.2437C21.3497 17.2437 20.4863 18.737 21.548 20.5687C22.1547 21.6303 21.793 22.9837 20.7313 23.5903L18.713 24.7453C17.7913 25.2937 16.6013 24.967 16.053 24.0453L15.9247 23.8237C14.8747 21.992 13.148 21.992 12.0863 23.8237L11.958 24.0453C11.4097 24.967 10.2197 25.2937 9.29801 24.7453L7.27967 23.5903C6.77112 23.2975 6.39952 22.8149 6.24641 22.2484C6.0933 21.6819 6.1712 21.0778 6.46301 20.5687C7.52467 18.737 6.66134 17.2437 4.54967 17.2437C3.32467 17.2437 2.33301 16.2403 2.33301 15.027V15.027Z" stroke="#ACACAC" stroke-width="2" stroke-miterlimit="10" stroke-linecap="round" stroke-linejoin="round"/>
</svg>
